<mxfile host="65bd71144e">
    <diagram id="hXp-BK9krXCST9_J2GGl" name="Page-1">
        <mxGraphModel dx="734" dy="567" grid="1" gridSize="10" guides="1" tooltips="1" connect="1" arrows="1" fold="1" page="1" pageScale="1" pageWidth="850" pageHeight="1100" math="0" shadow="0">
            <root>
                <mxCell id="0"/>
                <mxCell id="1" parent="0"/>
                <mxCell id="42" style="edgeStyle=none;html=1;entryX=0;entryY=0;entryDx=0;entryDy=0;exitX=0.745;exitY=0.999;exitDx=0;exitDy=0;exitPerimeter=0;fillColor=#a20025;strokeColor=#6F0000;" parent="1" source="36" target="43" edge="1">
                    <mxGeometry relative="1" as="geometry">
                        <mxPoint x="260" y="90" as="targetPoint"/>
                        <mxPoint x="180" y="220.56000000000006" as="sourcePoint"/>
                        <Array as="points">
                            <mxPoint x="180" y="240"/>
                            <mxPoint x="210" y="320"/>
                        </Array>
                    </mxGeometry>
                </mxCell>
                <mxCell id="89" style="edgeStyle=none;html=1;entryX=0;entryY=0;entryDx=0;entryDy=0;fillColor=#a20025;strokeColor=#6F0000;exitX=0.747;exitY=1.007;exitDx=0;exitDy=0;exitPerimeter=0;" parent="1" source="36" target="76" edge="1">
                    <mxGeometry relative="1" as="geometry">
                        <mxPoint x="183.56999999999994" y="250.48000000000002" as="sourcePoint"/>
                        <Array as="points">
                            <mxPoint x="200" y="110"/>
                            <mxPoint x="240" y="180"/>
                        </Array>
                    </mxGeometry>
                </mxCell>
                <mxCell id="186" value="Contains" style="edgeLabel;html=1;align=center;verticalAlign=middle;resizable=0;points=[];" parent="89" vertex="1" connectable="0">
                    <mxGeometry x="-0.4569" y="-4" relative="1" as="geometry">
                        <mxPoint x="129" y="96" as="offset"/>
                    </mxGeometry>
                </mxCell>
                <mxCell id="234" style="edgeStyle=none;html=1;fontColor=#FFFFFF;exitX=0.055;exitY=1.037;exitDx=0;exitDy=0;fillColor=#a20025;strokeColor=#6F0000;exitPerimeter=0;" edge="1" parent="1" source="36" target="233">
                    <mxGeometry relative="1" as="geometry">
                        <Array as="points">
                            <mxPoint x="80" y="130"/>
                        </Array>
                    </mxGeometry>
                </mxCell>
                <mxCell id="35" value="Hotel" style="swimlane;fontStyle=4;align=center;verticalAlign=top;childLayout=stackLayout;horizontal=1;startSize=30;horizontalStack=0;resizeParent=1;resizeParentMax=0;resizeLast=0;collapsible=0;marginBottom=0;html=1;fillColor=#f5f5f5;fontColor=#333333;strokeColor=#666666;" parent="1" vertex="1">
                    <mxGeometry x="10" y="10" width="170" height="100" as="geometry"/>
                </mxCell>
                <mxCell id="36" value="vector &amp;lt;Room*&amp;gt; rooms&lt;br&gt;vector &amp;lt;Pet*&amp;gt; pets&lt;br&gt;numTotal = 5&lt;br&gt;numFree = 3&lt;br&gt;dailyRate = 50" style="html=1;strokeColor=#666666;fillColor=#f5f5f5;align=left;verticalAlign=middle;spacingLeft=4;spacingRight=4;rotatable=0;points=[[0,0.5],[1,0.5]];resizeWidth=1;fontColor=#333333;" parent="35" vertex="1">
                    <mxGeometry y="30" width="170" height="70" as="geometry"/>
                </mxCell>
                <mxCell id="213" value="Uses" style="edgeStyle=none;html=1;entryX=0.941;entryY=1;entryDx=0;entryDy=0;fillColor=#008a00;strokeColor=#005700;entryPerimeter=0;" parent="1" source="43" target="36" edge="1">
                    <mxGeometry x="-0.0087" y="-1" relative="1" as="geometry">
                        <mxPoint x="180" y="230" as="targetPoint"/>
                        <Array as="points">
                            <mxPoint x="320" y="280"/>
                            <mxPoint x="230" y="210"/>
                        </Array>
                        <mxPoint as="offset"/>
                    </mxGeometry>
                </mxCell>
                <mxCell id="43" value="Pet" style="swimlane;fontStyle=4;align=center;verticalAlign=top;childLayout=stackLayout;horizontal=1;startSize=30;horizontalStack=0;resizeParent=1;resizeParentMax=0;resizeLast=0;collapsible=0;marginBottom=0;html=1;fillColor=#f5f5f5;fontColor=#333333;strokeColor=#666666;" parent="1" vertex="1">
                    <mxGeometry x="260" y="320" width="140" height="360" as="geometry"/>
                </mxCell>
                <mxCell id="44" value="name = &quot;Barsik&quot;" style="html=1;strokeColor=#666666;fillColor=#f5f5f5;align=left;verticalAlign=middle;spacingLeft=4;spacingRight=4;rotatable=0;points=[[0,0.5],[1,0.5]];resizeWidth=1;fontColor=#333333;" parent="43" vertex="1">
                    <mxGeometry y="30" width="140" height="30" as="geometry"/>
                </mxCell>
                <mxCell id="49" value="age = 5" style="html=1;strokeColor=#666666;fillColor=#f5f5f5;align=left;verticalAlign=middle;spacingLeft=4;spacingRight=4;rotatable=0;points=[[0,0.5],[1,0.5]];resizeWidth=1;fontColor=#333333;" parent="43" vertex="1">
                    <mxGeometry y="60" width="140" height="30" as="geometry"/>
                </mxCell>
                <mxCell id="51" value="hungerLevel = 100" style="html=1;strokeColor=#666666;fillColor=#f5f5f5;align=left;verticalAlign=middle;spacingLeft=4;spacingRight=4;rotatable=0;points=[[0,0.5],[1,0.5]];resizeWidth=1;fontColor=#333333;" parent="43" vertex="1">
                    <mxGeometry y="90" width="140" height="30" as="geometry"/>
                </mxCell>
                <mxCell id="52" value="healthLevel = 100" style="html=1;strokeColor=#666666;fillColor=#f5f5f5;align=left;verticalAlign=middle;spacingLeft=4;spacingRight=4;rotatable=0;points=[[0,0.5],[1,0.5]];resizeWidth=1;fontColor=#333333;" parent="43" vertex="1">
                    <mxGeometry y="120" width="140" height="30" as="geometry"/>
                </mxCell>
                <mxCell id="53" value="isHungry = false" style="html=1;strokeColor=#666666;fillColor=#f5f5f5;align=left;verticalAlign=middle;spacingLeft=4;spacingRight=4;rotatable=0;points=[[0,0.5],[1,0.5]];resizeWidth=1;fontColor=#333333;" parent="43" vertex="1">
                    <mxGeometry y="150" width="140" height="30" as="geometry"/>
                </mxCell>
                <mxCell id="54" value="isIll = false" style="html=1;strokeColor=#666666;fillColor=#f5f5f5;align=left;verticalAlign=middle;spacingLeft=4;spacingRight=4;rotatable=0;points=[[0,0.5],[1,0.5]];resizeWidth=1;fontColor=#333333;" parent="43" vertex="1">
                    <mxGeometry y="180" width="140" height="30" as="geometry"/>
                </mxCell>
                <mxCell id="55" value="roomNumber = 1" style="html=1;strokeColor=#666666;fillColor=#f5f5f5;align=left;verticalAlign=middle;spacingLeft=4;spacingRight=4;rotatable=0;points=[[0,0.5],[1,0.5]];resizeWidth=1;fontColor=#333333;" parent="43" vertex="1">
                    <mxGeometry y="210" width="140" height="30" as="geometry"/>
                </mxCell>
                <mxCell id="56" value="warns = 0" style="html=1;strokeColor=#666666;fillColor=#f5f5f5;align=left;verticalAlign=middle;spacingLeft=4;spacingRight=4;rotatable=0;points=[[0,0.5],[1,0.5]];resizeWidth=1;fontColor=#333333;" parent="43" vertex="1">
                    <mxGeometry y="240" width="140" height="30" as="geometry"/>
                </mxCell>
                <mxCell id="57" value="id = 1" style="html=1;strokeColor=#666666;fillColor=#f5f5f5;align=left;verticalAlign=middle;spacingLeft=4;spacingRight=4;rotatable=0;points=[[0,0.5],[1,0.5]];resizeWidth=1;fontColor=#333333;" parent="43" vertex="1">
                    <mxGeometry y="270" width="140" height="30" as="geometry"/>
                </mxCell>
                <mxCell id="58" value="Pesonal *offers" style="html=1;strokeColor=#666666;fillColor=#f5f5f5;align=left;verticalAlign=middle;spacingLeft=4;spacingRight=4;rotatable=0;points=[[0,0.5],[1,0.5]];resizeWidth=1;fontColor=#333333;" parent="43" vertex="1">
                    <mxGeometry y="300" width="140" height="30" as="geometry"/>
                </mxCell>
                <mxCell id="59" value="Payment *bill" style="html=1;strokeColor=#666666;fillColor=#f5f5f5;align=left;verticalAlign=middle;spacingLeft=4;spacingRight=4;rotatable=0;points=[[0,0.5],[1,0.5]];resizeWidth=1;fontColor=#333333;" parent="43" vertex="1">
                    <mxGeometry y="330" width="140" height="30" as="geometry"/>
                </mxCell>
                <mxCell id="214" value="Uses" style="edgeStyle=none;html=1;entryX=0.132;entryY=1.021;entryDx=0;entryDy=0;entryPerimeter=0;fillColor=#008a00;strokeColor=#005700;" parent="1" source="60" edge="1">
                    <mxGeometry relative="1" as="geometry">
                        <mxPoint x="57.15999999999997" y="342.93999999999994" as="targetPoint"/>
                    </mxGeometry>
                </mxCell>
                <mxCell id="60" value="Pet" style="swimlane;fontStyle=4;align=center;verticalAlign=top;childLayout=stackLayout;horizontal=1;startSize=30;horizontalStack=0;resizeParent=1;resizeParentMax=0;resizeLast=0;collapsible=0;marginBottom=0;html=1;fillColor=#f5f5f5;fontColor=#333333;strokeColor=#666666;" parent="1" vertex="1">
                    <mxGeometry x="10" y="330" width="140" height="360" as="geometry"/>
                </mxCell>
                <mxCell id="61" value="name = &quot;Popka&quot;" style="html=1;strokeColor=#666666;fillColor=#f5f5f5;align=left;verticalAlign=middle;spacingLeft=4;spacingRight=4;rotatable=0;points=[[0,0.5],[1,0.5]];resizeWidth=1;fontColor=#333333;" parent="60" vertex="1">
                    <mxGeometry y="30" width="140" height="30" as="geometry"/>
                </mxCell>
                <mxCell id="62" value="age = 10" style="html=1;strokeColor=#666666;fillColor=#f5f5f5;align=left;verticalAlign=middle;spacingLeft=4;spacingRight=4;rotatable=0;points=[[0,0.5],[1,0.5]];resizeWidth=1;fontColor=#333333;" parent="60" vertex="1">
                    <mxGeometry y="60" width="140" height="30" as="geometry"/>
                </mxCell>
                <mxCell id="63" value="hungerLevel = 70" style="html=1;strokeColor=#666666;fillColor=#f5f5f5;align=left;verticalAlign=middle;spacingLeft=4;spacingRight=4;rotatable=0;points=[[0,0.5],[1,0.5]];resizeWidth=1;fontColor=#333333;" parent="60" vertex="1">
                    <mxGeometry y="90" width="140" height="30" as="geometry"/>
                </mxCell>
                <mxCell id="64" value="healthLevel = 50" style="html=1;strokeColor=#666666;fillColor=#f5f5f5;align=left;verticalAlign=middle;spacingLeft=4;spacingRight=4;rotatable=0;points=[[0,0.5],[1,0.5]];resizeWidth=1;fontColor=#333333;" parent="60" vertex="1">
                    <mxGeometry y="120" width="140" height="30" as="geometry"/>
                </mxCell>
                <mxCell id="65" value="isHungry = true" style="html=1;strokeColor=#666666;fillColor=#f5f5f5;align=left;verticalAlign=middle;spacingLeft=4;spacingRight=4;rotatable=0;points=[[0,0.5],[1,0.5]];resizeWidth=1;fontColor=#333333;" parent="60" vertex="1">
                    <mxGeometry y="150" width="140" height="30" as="geometry"/>
                </mxCell>
                <mxCell id="66" value="isIll = false" style="html=1;strokeColor=#666666;fillColor=#f5f5f5;align=left;verticalAlign=middle;spacingLeft=4;spacingRight=4;rotatable=0;points=[[0,0.5],[1,0.5]];resizeWidth=1;fontColor=#333333;" parent="60" vertex="1">
                    <mxGeometry y="180" width="140" height="30" as="geometry"/>
                </mxCell>
                <mxCell id="67" value="roomNumber = 2" style="html=1;strokeColor=#666666;fillColor=#f5f5f5;align=left;verticalAlign=middle;spacingLeft=4;spacingRight=4;rotatable=0;points=[[0,0.5],[1,0.5]];resizeWidth=1;fontColor=#333333;" parent="60" vertex="1">
                    <mxGeometry y="210" width="140" height="30" as="geometry"/>
                </mxCell>
                <mxCell id="68" value="warns = 1" style="html=1;strokeColor=#666666;fillColor=#f5f5f5;align=left;verticalAlign=middle;spacingLeft=4;spacingRight=4;rotatable=0;points=[[0,0.5],[1,0.5]];resizeWidth=1;fontColor=#333333;" parent="60" vertex="1">
                    <mxGeometry y="240" width="140" height="30" as="geometry"/>
                </mxCell>
                <mxCell id="69" value="id = 2" style="html=1;strokeColor=#666666;fillColor=#f5f5f5;align=left;verticalAlign=middle;spacingLeft=4;spacingRight=4;rotatable=0;points=[[0,0.5],[1,0.5]];resizeWidth=1;fontColor=#333333;" parent="60" vertex="1">
                    <mxGeometry y="270" width="140" height="30" as="geometry"/>
                </mxCell>
                <mxCell id="70" value="Pesonal *offers" style="html=1;strokeColor=#666666;fillColor=#f5f5f5;align=left;verticalAlign=middle;spacingLeft=4;spacingRight=4;rotatable=0;points=[[0,0.5],[1,0.5]];resizeWidth=1;fontColor=#333333;" parent="60" vertex="1">
                    <mxGeometry y="300" width="140" height="30" as="geometry"/>
                </mxCell>
                <mxCell id="71" value="Payment *bill" style="html=1;strokeColor=#666666;fillColor=#f5f5f5;align=left;verticalAlign=middle;spacingLeft=4;spacingRight=4;rotatable=0;points=[[0,0.5],[1,0.5]];resizeWidth=1;fontColor=#333333;" parent="60" vertex="1">
                    <mxGeometry y="330" width="140" height="30" as="geometry"/>
                </mxCell>
                <mxCell id="75" style="edgeStyle=none;html=1;fillColor=#a20025;strokeColor=#6F0000;" parent="1" target="67" edge="1">
                    <mxGeometry relative="1" as="geometry">
                        <Array as="points">
                            <mxPoint x="180" y="400"/>
                            <mxPoint x="210" y="530"/>
                        </Array>
                        <mxPoint x="145.38461538461536" y="340" as="sourcePoint"/>
                    </mxGeometry>
                </mxCell>
                <mxCell id="188" value="Contains" style="edgeLabel;html=1;align=center;verticalAlign=middle;resizable=0;points=[];" parent="75" vertex="1" connectable="0">
                    <mxGeometry x="-0.0842" y="-3" relative="1" as="geometry">
                        <mxPoint x="-1" y="6" as="offset"/>
                    </mxGeometry>
                </mxCell>
                <mxCell id="212" style="edgeStyle=none;html=1;entryX=0.947;entryY=1.031;entryDx=0;entryDy=0;fillColor=#008a00;strokeColor=#005700;entryPerimeter=0;" parent="1" source="76" target="36" edge="1">
                    <mxGeometry relative="1" as="geometry">
                        <mxPoint x="170" y="305" as="targetPoint"/>
                        <Array as="points">
                            <mxPoint x="540" y="270"/>
                        </Array>
                    </mxGeometry>
                </mxCell>
                <mxCell id="215" value="Uses" style="edgeLabel;html=1;align=center;verticalAlign=middle;resizable=0;points=[];" parent="212" vertex="1" connectable="0">
                    <mxGeometry x="0.3003" y="1" relative="1" as="geometry">
                        <mxPoint x="143" y="55" as="offset"/>
                    </mxGeometry>
                </mxCell>
                <mxCell id="76" value="Pet" style="swimlane;fontStyle=4;align=center;verticalAlign=top;childLayout=stackLayout;horizontal=1;startSize=30;horizontalStack=0;resizeParent=1;resizeParentMax=0;resizeLast=0;collapsible=0;marginBottom=0;html=1;fillColor=#f5f5f5;fontColor=#333333;strokeColor=#666666;" parent="1" vertex="1">
                    <mxGeometry x="460" y="330" width="140" height="360" as="geometry"/>
                </mxCell>
                <mxCell id="77" value="name = &quot;Sharik&quot;" style="html=1;strokeColor=#666666;fillColor=#f5f5f5;align=left;verticalAlign=middle;spacingLeft=4;spacingRight=4;rotatable=0;points=[[0,0.5],[1,0.5]];resizeWidth=1;fontColor=#333333;" parent="76" vertex="1">
                    <mxGeometry y="30" width="140" height="30" as="geometry"/>
                </mxCell>
                <mxCell id="78" value="age = 3" style="html=1;strokeColor=#666666;fillColor=#f5f5f5;align=left;verticalAlign=middle;spacingLeft=4;spacingRight=4;rotatable=0;points=[[0,0.5],[1,0.5]];resizeWidth=1;fontColor=#333333;" parent="76" vertex="1">
                    <mxGeometry y="60" width="140" height="30" as="geometry"/>
                </mxCell>
                <mxCell id="79" value="hungerLevel = 0" style="html=1;strokeColor=#666666;fillColor=#f5f5f5;align=left;verticalAlign=middle;spacingLeft=4;spacingRight=4;rotatable=0;points=[[0,0.5],[1,0.5]];resizeWidth=1;fontColor=#333333;" parent="76" vertex="1">
                    <mxGeometry y="90" width="140" height="30" as="geometry"/>
                </mxCell>
                <mxCell id="80" value="healthLevel = 0" style="html=1;strokeColor=#666666;fillColor=#f5f5f5;align=left;verticalAlign=middle;spacingLeft=4;spacingRight=4;rotatable=0;points=[[0,0.5],[1,0.5]];resizeWidth=1;fontColor=#333333;" parent="76" vertex="1">
                    <mxGeometry y="120" width="140" height="30" as="geometry"/>
                </mxCell>
                <mxCell id="81" value="isHungry = true" style="html=1;strokeColor=#666666;fillColor=#f5f5f5;align=left;verticalAlign=middle;spacingLeft=4;spacingRight=4;rotatable=0;points=[[0,0.5],[1,0.5]];resizeWidth=1;fontColor=#333333;" parent="76" vertex="1">
                    <mxGeometry y="150" width="140" height="30" as="geometry"/>
                </mxCell>
                <mxCell id="82" value="isIll = true" style="html=1;strokeColor=#666666;fillColor=#f5f5f5;align=left;verticalAlign=middle;spacingLeft=4;spacingRight=4;rotatable=0;points=[[0,0.5],[1,0.5]];resizeWidth=1;fontColor=#333333;" parent="76" vertex="1">
                    <mxGeometry y="180" width="140" height="30" as="geometry"/>
                </mxCell>
                <mxCell id="83" value="roomNumber = -1" style="html=1;strokeColor=#666666;fillColor=#f5f5f5;align=left;verticalAlign=middle;spacingLeft=4;spacingRight=4;rotatable=0;points=[[0,0.5],[1,0.5]];resizeWidth=1;fontColor=#333333;" parent="76" vertex="1">
                    <mxGeometry y="210" width="140" height="30" as="geometry"/>
                </mxCell>
                <mxCell id="84" value="warns = 0" style="html=1;strokeColor=#666666;fillColor=#f5f5f5;align=left;verticalAlign=middle;spacingLeft=4;spacingRight=4;rotatable=0;points=[[0,0.5],[1,0.5]];resizeWidth=1;fontColor=#333333;" parent="76" vertex="1">
                    <mxGeometry y="240" width="140" height="30" as="geometry"/>
                </mxCell>
                <mxCell id="85" value="id = 3" style="html=1;strokeColor=#666666;fillColor=#f5f5f5;align=left;verticalAlign=middle;spacingLeft=4;spacingRight=4;rotatable=0;points=[[0,0.5],[1,0.5]];resizeWidth=1;fontColor=#333333;" parent="76" vertex="1">
                    <mxGeometry y="270" width="140" height="30" as="geometry"/>
                </mxCell>
                <mxCell id="86" value="Pesonal *offers" style="html=1;strokeColor=#666666;fillColor=#f5f5f5;align=left;verticalAlign=middle;spacingLeft=4;spacingRight=4;rotatable=0;points=[[0,0.5],[1,0.5]];resizeWidth=1;fontColor=#333333;" parent="76" vertex="1">
                    <mxGeometry y="300" width="140" height="30" as="geometry"/>
                </mxCell>
                <mxCell id="87" value="Payment *bill" style="html=1;strokeColor=#666666;fillColor=#f5f5f5;align=left;verticalAlign=middle;spacingLeft=4;spacingRight=4;rotatable=0;points=[[0,0.5],[1,0.5]];resizeWidth=1;fontColor=#333333;" parent="76" vertex="1">
                    <mxGeometry y="330" width="140" height="30" as="geometry"/>
                </mxCell>
                <mxCell id="90" value="Personal" style="swimlane;fontStyle=4;align=center;verticalAlign=top;childLayout=stackLayout;horizontal=1;startSize=30;horizontalStack=0;resizeParent=1;resizeParentMax=0;resizeLast=0;collapsible=0;marginBottom=0;html=1;fillColor=#f5f5f5;fontColor=#333333;strokeColor=#666666;" parent="1" vertex="1">
                    <mxGeometry y="720" width="170" height="242" as="geometry"/>
                </mxCell>
                <mxCell id="96" value="Vector &amp;lt;Service&amp;gt; services" style="text;html=1;align=center;verticalAlign=middle;resizable=0;points=[];autosize=1;strokeColor=#666666;fillColor=#f5f5f5;fontColor=#333333;" parent="90" vertex="1">
                    <mxGeometry y="30" width="170" height="20" as="geometry"/>
                </mxCell>
                <mxCell id="92" value="" style="line;strokeWidth=1;fillColor=#f5f5f5;align=left;verticalAlign=middle;spacingTop=-1;spacingLeft=3;spacingRight=3;rotatable=0;labelPosition=right;points=[];portConstraint=eastwest;fontColor=#333333;strokeColor=#666666;" parent="90" vertex="1">
                    <mxGeometry y="50" width="170" height="10" as="geometry"/>
                </mxCell>
                <mxCell id="93" value="internal structure Service" style="html=1;strokeColor=#666666;fillColor=#f5f5f5;align=center;verticalAlign=middle;spacingLeft=4;spacingRight=4;rotatable=0;points=[[0,0.5],[1,0.5]];resizeWidth=1;fontColor=#333333;" parent="90" vertex="1">
                    <mxGeometry y="60" width="170" height="20" as="geometry"/>
                </mxCell>
                <mxCell id="94" value="" style="swimlane;fontStyle=1;align=center;verticalAlign=top;horizontal=1;startSize=0;collapsible=0;marginBottom=0;html=1;strokeColor=#666666;fillColor=default;fontColor=#333333;gradientColor=#ffffff;" parent="90" vertex="1">
                    <mxGeometry y="80" width="170" height="162" as="geometry"/>
                </mxCell>
                <mxCell id="95" value="bool activated&lt;br&gt;bool oneTime&lt;br&gt;string name&lt;br&gt;int price" style="html=1;align=center;verticalAlign=middle;rotatable=0;fillColor=#f5f5f5;fontColor=#333333;strokeColor=#666666;" parent="94" vertex="1">
                    <mxGeometry width="130" height="140" relative="1" as="geometry">
                        <mxPoint x="30" y="10" as="offset"/>
                    </mxGeometry>
                </mxCell>
                <mxCell id="97" value="Contains" style="edgeStyle=none;html=1;entryX=0.15;entryY=-0.029;entryDx=0;entryDy=0;entryPerimeter=0;fillColor=#a20025;strokeColor=#6F0000;" parent="1" source="95" target="98" edge="1">
                    <mxGeometry relative="1" as="geometry">
                        <mxPoint x="29.999999999999886" y="980" as="targetPoint"/>
                    </mxGeometry>
                </mxCell>
                <mxCell id="98" value="activated = true&lt;br&gt;oneTime = false&lt;br&gt;name = &quot;Feeding&quot;&amp;nbsp;&lt;br&gt;price&amp;nbsp; =100" style="html=1;align=center;verticalAlign=middle;rotatable=0;fillColor=#f5f5f5;fontColor=#333333;strokeColor=#666666;" parent="1" vertex="1">
                    <mxGeometry x="-1.1368683772161603e-13" y="990" width="130" height="140" as="geometry"/>
                </mxCell>
                <mxCell id="99" value="activated = false&lt;br&gt;oneTime = true&lt;br&gt;name = &quot;Healing&quot;&amp;nbsp;&lt;br&gt;price&amp;nbsp; =200" style="html=1;align=center;verticalAlign=middle;rotatable=0;fillColor=#f5f5f5;fontColor=#333333;strokeColor=#666666;" parent="1" vertex="1">
                    <mxGeometry x="170" y="990" width="140" height="140" as="geometry"/>
                </mxCell>
                <mxCell id="100" value="activated = true&lt;br&gt;oneTime = true&lt;br&gt;name = &quot;Cleaning&quot;&amp;nbsp;&lt;br&gt;price&amp;nbsp; =300" style="html=1;align=center;verticalAlign=middle;rotatable=0;fillColor=#f5f5f5;fontColor=#333333;strokeColor=#666666;" parent="1" vertex="1">
                    <mxGeometry x="-1.1368683772161603e-13" y="1160" width="130" height="140" as="geometry"/>
                </mxCell>
                <mxCell id="101" value="activated = false&lt;br&gt;oneTime = true&lt;br&gt;name = &quot;Repair the room&quot;&amp;nbsp;&lt;br&gt;price&amp;nbsp; =500" style="html=1;align=center;verticalAlign=middle;rotatable=0;fillColor=#f5f5f5;fontColor=#333333;strokeColor=#666666;" parent="1" vertex="1">
                    <mxGeometry x="170" y="1160" width="140" height="140" as="geometry"/>
                </mxCell>
                <mxCell id="102" value="Contains" style="edgeStyle=none;html=1;entryX=0;entryY=0;entryDx=0;entryDy=0;fillColor=#a20025;strokeColor=#6F0000;" parent="1" source="95" target="99" edge="1">
                    <mxGeometry relative="1" as="geometry"/>
                </mxCell>
                <mxCell id="103" style="edgeStyle=none;html=1;entryX=0.001;entryY=0.058;entryDx=0;entryDy=0;entryPerimeter=0;fillColor=#a20025;strokeColor=#6F0000;" parent="1" source="95" target="101" edge="1">
                    <mxGeometry relative="1" as="geometry">
                        <Array as="points">
                            <mxPoint x="150" y="1060"/>
                        </Array>
                    </mxGeometry>
                </mxCell>
                <mxCell id="197" value="Contains" style="edgeLabel;html=1;align=center;verticalAlign=middle;resizable=0;points=[];" parent="103" vertex="1" connectable="0">
                    <mxGeometry x="0.7525" y="-2" relative="1" as="geometry">
                        <mxPoint x="7" as="offset"/>
                    </mxGeometry>
                </mxCell>
                <mxCell id="104" style="edgeStyle=none;html=1;entryX=1;entryY=0;entryDx=0;entryDy=0;fillColor=#a20025;strokeColor=#6F0000;" parent="1" source="95" target="100" edge="1">
                    <mxGeometry relative="1" as="geometry">
                        <Array as="points">
                            <mxPoint x="150" y="1060"/>
                        </Array>
                    </mxGeometry>
                </mxCell>
                <mxCell id="196" value="Contains" style="edgeLabel;html=1;align=center;verticalAlign=middle;resizable=0;points=[];" parent="104" vertex="1" connectable="0">
                    <mxGeometry x="-0.7789" y="-1" relative="1" as="geometry">
                        <mxPoint x="7" y="166" as="offset"/>
                    </mxGeometry>
                </mxCell>
                <mxCell id="105" style="edgeStyle=none;html=1;fillColor=#a20025;strokeColor=#6F0000;" parent="1" source="70" target="90" edge="1">
                    <mxGeometry relative="1" as="geometry">
                        <Array as="points">
                            <mxPoint x="230" y="660"/>
                        </Array>
                    </mxGeometry>
                </mxCell>
                <mxCell id="189" value="Contains" style="edgeLabel;html=1;align=center;verticalAlign=middle;resizable=0;points=[];" parent="105" vertex="1" connectable="0">
                    <mxGeometry x="-0.7111" relative="1" as="geometry">
                        <mxPoint as="offset"/>
                    </mxGeometry>
                </mxCell>
                <mxCell id="106" value="Personal" style="swimlane;fontStyle=4;align=center;verticalAlign=top;childLayout=stackLayout;horizontal=1;startSize=30;horizontalStack=0;resizeParent=1;resizeParentMax=0;resizeLast=0;collapsible=0;marginBottom=0;html=1;fillColor=#f5f5f5;fontColor=#333333;strokeColor=#666666;" parent="1" vertex="1">
                    <mxGeometry x="370" y="740" width="170" height="242" as="geometry"/>
                </mxCell>
                <mxCell id="107" value="Vector &amp;lt;Service&amp;gt; services" style="text;html=1;align=center;verticalAlign=middle;resizable=0;points=[];autosize=1;strokeColor=#666666;fillColor=#f5f5f5;fontColor=#333333;" parent="106" vertex="1">
                    <mxGeometry y="30" width="170" height="20" as="geometry"/>
                </mxCell>
                <mxCell id="108" value="" style="line;strokeWidth=1;fillColor=#f5f5f5;align=left;verticalAlign=middle;spacingTop=-1;spacingLeft=3;spacingRight=3;rotatable=0;labelPosition=right;points=[];portConstraint=eastwest;fontColor=#333333;strokeColor=#666666;" parent="106" vertex="1">
                    <mxGeometry y="50" width="170" height="10" as="geometry"/>
                </mxCell>
                <mxCell id="109" value="internal structure Service" style="html=1;strokeColor=#666666;fillColor=#f5f5f5;align=center;verticalAlign=middle;spacingLeft=4;spacingRight=4;rotatable=0;points=[[0,0.5],[1,0.5]];resizeWidth=1;fontColor=#333333;" parent="106" vertex="1">
                    <mxGeometry y="60" width="170" height="20" as="geometry"/>
                </mxCell>
                <mxCell id="110" value="" style="swimlane;fontStyle=1;align=center;verticalAlign=top;horizontal=1;startSize=0;collapsible=0;marginBottom=0;html=1;strokeColor=#666666;fillColor=#f5f5f5;fontColor=#333333;" parent="106" vertex="1">
                    <mxGeometry y="80" width="170" height="162" as="geometry"/>
                </mxCell>
                <mxCell id="111" value="bool activated&lt;br&gt;bool oneTime&lt;br&gt;string name&lt;br&gt;int price" style="html=1;align=center;verticalAlign=middle;rotatable=0;fillColor=#f5f5f5;fontColor=#333333;strokeColor=#666666;" parent="110" vertex="1">
                    <mxGeometry width="130" height="140" relative="1" as="geometry">
                        <mxPoint x="30" y="10" as="offset"/>
                    </mxGeometry>
                </mxCell>
                <mxCell id="112" value="Contains" style="edgeStyle=none;html=1;fillColor=#a20025;strokeColor=#6F0000;entryX=0.153;entryY=-0.005;entryDx=0;entryDy=0;entryPerimeter=0;" parent="1" source="111" target="113" edge="1">
                    <mxGeometry relative="1" as="geometry">
                        <mxPoint x="400" y="999.9999999999998" as="targetPoint"/>
                    </mxGeometry>
                </mxCell>
                <mxCell id="113" value="activated = true&lt;br&gt;oneTime = false&lt;br&gt;name = &quot;Feeding&quot;&amp;nbsp;&lt;br&gt;price&amp;nbsp; =300" style="html=1;align=center;verticalAlign=middle;rotatable=0;fillColor=#f5f5f5;fontColor=#333333;strokeColor=#666666;" parent="1" vertex="1">
                    <mxGeometry x="369.9999999999999" y="1010" width="130" height="140" as="geometry"/>
                </mxCell>
                <mxCell id="114" value="activated = false&lt;br&gt;oneTime = true&lt;br&gt;name = &quot;Healing&quot;&amp;nbsp;&lt;br&gt;price&amp;nbsp; =200" style="html=1;align=center;verticalAlign=middle;rotatable=0;fillColor=#f5f5f5;fontColor=#333333;strokeColor=#666666;" parent="1" vertex="1">
                    <mxGeometry x="540" y="1010" width="140" height="140" as="geometry"/>
                </mxCell>
                <mxCell id="115" value="activated = false&lt;br&gt;oneTime = true&lt;br&gt;name = &quot;Cleaning&quot;&amp;nbsp;&lt;br&gt;price&amp;nbsp; =500" style="html=1;align=center;verticalAlign=middle;rotatable=0;fillColor=#f5f5f5;fontColor=#333333;strokeColor=#666666;" parent="1" vertex="1">
                    <mxGeometry x="369.9999999999999" y="1180" width="130" height="140" as="geometry"/>
                </mxCell>
                <mxCell id="116" value="activated = false&lt;br&gt;oneTime = true&lt;br&gt;name = &quot;Repair the room&quot;&amp;nbsp;&lt;br&gt;price&amp;nbsp; =500" style="html=1;align=center;verticalAlign=middle;rotatable=0;fillColor=#f5f5f5;fontColor=#333333;strokeColor=#666666;" parent="1" vertex="1">
                    <mxGeometry x="540" y="1180" width="140" height="140" as="geometry"/>
                </mxCell>
                <mxCell id="117" value="Contains" style="edgeStyle=none;html=1;entryX=0;entryY=0;entryDx=0;entryDy=0;fillColor=#a20025;strokeColor=#6F0000;" parent="1" source="111" target="114" edge="1">
                    <mxGeometry relative="1" as="geometry"/>
                </mxCell>
                <mxCell id="118" style="edgeStyle=none;html=1;entryX=0.001;entryY=0.058;entryDx=0;entryDy=0;entryPerimeter=0;fillColor=#a20025;strokeColor=#6F0000;" parent="1" source="111" target="116" edge="1">
                    <mxGeometry relative="1" as="geometry">
                        <Array as="points">
                            <mxPoint x="520" y="1080"/>
                        </Array>
                    </mxGeometry>
                </mxCell>
                <mxCell id="202" value="Contains" style="edgeLabel;html=1;align=center;verticalAlign=middle;resizable=0;points=[];" parent="118" vertex="1" connectable="0">
                    <mxGeometry x="0.826" y="2" relative="1" as="geometry">
                        <mxPoint as="offset"/>
                    </mxGeometry>
                </mxCell>
                <mxCell id="119" style="edgeStyle=none;html=1;entryX=1;entryY=0;entryDx=0;entryDy=0;fillColor=#a20025;strokeColor=#6F0000;" parent="1" source="111" target="115" edge="1">
                    <mxGeometry relative="1" as="geometry">
                        <Array as="points">
                            <mxPoint x="520" y="1080"/>
                        </Array>
                    </mxGeometry>
                </mxCell>
                <mxCell id="201" value="Contains" style="edgeLabel;html=1;align=center;verticalAlign=middle;resizable=0;points=[];" parent="119" vertex="1" connectable="0">
                    <mxGeometry x="0.7504" y="-2" relative="1" as="geometry">
                        <mxPoint x="-13" y="7" as="offset"/>
                    </mxGeometry>
                </mxCell>
                <mxCell id="121" value="Contains" style="edgeStyle=none;html=1;entryX=0.5;entryY=0;entryDx=0;entryDy=0;fillColor=#a20025;strokeColor=#6F0000;" parent="1" source="58" target="106" edge="1">
                    <mxGeometry relative="1" as="geometry">
                        <Array as="points">
                            <mxPoint x="420" y="650"/>
                        </Array>
                    </mxGeometry>
                </mxCell>
                <mxCell id="122" value="Personal" style="swimlane;fontStyle=4;align=center;verticalAlign=top;childLayout=stackLayout;horizontal=1;startSize=30;horizontalStack=0;resizeParent=1;resizeParentMax=0;resizeLast=0;collapsible=0;marginBottom=0;html=1;fillColor=#f5f5f5;fontColor=#333333;strokeColor=#666666;" parent="1" vertex="1">
                    <mxGeometry x="780" y="740" width="170" height="242" as="geometry"/>
                </mxCell>
                <mxCell id="123" value="Vector &amp;lt;Service&amp;gt; services" style="text;html=1;align=center;verticalAlign=middle;resizable=0;points=[];autosize=1;strokeColor=#666666;fillColor=#f5f5f5;fontColor=#333333;" parent="122" vertex="1">
                    <mxGeometry y="30" width="170" height="20" as="geometry"/>
                </mxCell>
                <mxCell id="124" value="" style="line;strokeWidth=1;fillColor=#f5f5f5;align=left;verticalAlign=middle;spacingTop=-1;spacingLeft=3;spacingRight=3;rotatable=0;labelPosition=right;points=[];portConstraint=eastwest;fontColor=#333333;strokeColor=#666666;" parent="122" vertex="1">
                    <mxGeometry y="50" width="170" height="10" as="geometry"/>
                </mxCell>
                <mxCell id="125" value="internal structure Service" style="html=1;strokeColor=#666666;fillColor=#f5f5f5;align=center;verticalAlign=middle;spacingLeft=4;spacingRight=4;rotatable=0;points=[[0,0.5],[1,0.5]];resizeWidth=1;fontColor=#333333;" parent="122" vertex="1">
                    <mxGeometry y="60" width="170" height="20" as="geometry"/>
                </mxCell>
                <mxCell id="126" value="" style="swimlane;fontStyle=1;align=center;verticalAlign=top;horizontal=1;startSize=0;collapsible=0;marginBottom=0;html=1;strokeColor=#666666;fillColor=#f5f5f5;fontColor=#333333;" parent="122" vertex="1">
                    <mxGeometry y="80" width="170" height="162" as="geometry"/>
                </mxCell>
                <mxCell id="127" value="bool activated&lt;br&gt;bool oneTime&lt;br&gt;string name&lt;br&gt;int price" style="html=1;align=center;verticalAlign=middle;rotatable=0;fillColor=#f5f5f5;fontColor=#333333;strokeColor=#666666;" parent="126" vertex="1">
                    <mxGeometry width="130" height="140" relative="1" as="geometry">
                        <mxPoint x="30" y="10" as="offset"/>
                    </mxGeometry>
                </mxCell>
                <mxCell id="128" style="edgeStyle=none;html=1;entryX=0.167;entryY=-0.009;entryDx=0;entryDy=0;entryPerimeter=0;fillColor=#a20025;strokeColor=#6F0000;" parent="1" source="127" target="129" edge="1">
                    <mxGeometry relative="1" as="geometry">
                        <mxPoint x="810" y="999.9999999999998" as="targetPoint"/>
                    </mxGeometry>
                </mxCell>
                <mxCell id="206" value="Contains" style="edgeLabel;html=1;align=center;verticalAlign=middle;resizable=0;points=[];" parent="128" vertex="1" connectable="0">
                    <mxGeometry x="0.2775" y="1" relative="1" as="geometry">
                        <mxPoint y="-5" as="offset"/>
                    </mxGeometry>
                </mxCell>
                <mxCell id="129" value="activated = false&lt;br&gt;oneTime = false&lt;br&gt;name = &quot;Feeding&quot;&amp;nbsp;&lt;br&gt;price&amp;nbsp; = 50" style="html=1;align=center;verticalAlign=middle;rotatable=0;fillColor=#f5f5f5;fontColor=#333333;strokeColor=#666666;" parent="1" vertex="1">
                    <mxGeometry x="779.9999999999999" y="1010" width="130" height="140" as="geometry"/>
                </mxCell>
                <mxCell id="130" value="activated = false&lt;br&gt;oneTime = true&lt;br&gt;name = &quot;Healing&quot;&amp;nbsp;&lt;br&gt;price&amp;nbsp; =200" style="html=1;align=center;verticalAlign=middle;rotatable=0;fillColor=#f5f5f5;fontColor=#333333;strokeColor=#666666;" parent="1" vertex="1">
                    <mxGeometry x="950" y="1010" width="140" height="140" as="geometry"/>
                </mxCell>
                <mxCell id="131" value="activated = false&lt;br&gt;oneTime = true&lt;br&gt;name = &quot;Cleaning&quot;&amp;nbsp;&lt;br&gt;price&amp;nbsp; =500" style="html=1;align=center;verticalAlign=middle;rotatable=0;fillColor=#f5f5f5;fontColor=#333333;strokeColor=#666666;" parent="1" vertex="1">
                    <mxGeometry x="779.9999999999999" y="1180" width="130" height="140" as="geometry"/>
                </mxCell>
                <mxCell id="132" value="activated = false&lt;br&gt;oneTime = true&lt;br&gt;name = &quot;Repair the room&quot;&amp;nbsp;&lt;br&gt;price&amp;nbsp; =500" style="html=1;align=center;verticalAlign=middle;rotatable=0;fillColor=#f5f5f5;fontColor=#333333;strokeColor=#666666;" parent="1" vertex="1">
                    <mxGeometry x="950" y="1180" width="140" height="140" as="geometry"/>
                </mxCell>
                <mxCell id="133" style="edgeStyle=none;html=1;entryX=0;entryY=0;entryDx=0;entryDy=0;fillColor=#a20025;strokeColor=#6F0000;" parent="1" source="127" target="130" edge="1">
                    <mxGeometry relative="1" as="geometry"/>
                </mxCell>
                <mxCell id="205" value="Contains" style="edgeLabel;html=1;align=center;verticalAlign=middle;resizable=0;points=[];" parent="133" vertex="1" connectable="0">
                    <mxGeometry x="0.2687" relative="1" as="geometry">
                        <mxPoint as="offset"/>
                    </mxGeometry>
                </mxCell>
                <mxCell id="134" style="edgeStyle=none;html=1;entryX=0.001;entryY=0.058;entryDx=0;entryDy=0;entryPerimeter=0;fillColor=#a20025;strokeColor=#6F0000;" parent="1" source="127" target="132" edge="1">
                    <mxGeometry relative="1" as="geometry">
                        <Array as="points">
                            <mxPoint x="930" y="1080"/>
                        </Array>
                    </mxGeometry>
                </mxCell>
                <mxCell id="204" value="Contains" style="edgeLabel;html=1;align=center;verticalAlign=middle;resizable=0;points=[];" parent="134" vertex="1" connectable="0">
                    <mxGeometry x="0.8217" y="1" relative="1" as="geometry">
                        <mxPoint as="offset"/>
                    </mxGeometry>
                </mxCell>
                <mxCell id="135" style="edgeStyle=none;html=1;entryX=1;entryY=0;entryDx=0;entryDy=0;fillColor=#a20025;strokeColor=#6F0000;" parent="1" source="127" target="131" edge="1">
                    <mxGeometry relative="1" as="geometry">
                        <Array as="points">
                            <mxPoint x="930" y="1080"/>
                        </Array>
                    </mxGeometry>
                </mxCell>
                <mxCell id="203" value="Contains" style="edgeLabel;html=1;align=center;verticalAlign=middle;resizable=0;points=[];" parent="135" vertex="1" connectable="0">
                    <mxGeometry x="0.8251" y="3" relative="1" as="geometry">
                        <mxPoint x="-17" as="offset"/>
                    </mxGeometry>
                </mxCell>
                <mxCell id="136" style="edgeStyle=none;html=1;entryX=0.5;entryY=0;entryDx=0;entryDy=0;fillColor=#a20025;strokeColor=#6F0000;exitX=1;exitY=0.5;exitDx=0;exitDy=0;" parent="1" source="86" target="122" edge="1">
                    <mxGeometry relative="1" as="geometry">
                        <Array as="points">
                            <mxPoint x="720" y="610"/>
                        </Array>
                    </mxGeometry>
                </mxCell>
                <mxCell id="208" value="Contains" style="edgeLabel;html=1;align=center;verticalAlign=middle;resizable=0;points=[];" parent="136" vertex="1" connectable="0">
                    <mxGeometry x="-0.3243" y="1" relative="1" as="geometry">
                        <mxPoint as="offset"/>
                    </mxGeometry>
                </mxCell>
                <mxCell id="137" value="Payment" style="swimlane;fontStyle=4;align=center;verticalAlign=top;childLayout=stackLayout;horizontal=1;startSize=30;horizontalStack=0;resizeParent=1;resizeParentMax=0;resizeLast=0;collapsible=0;marginBottom=0;html=1;fillColor=#f5f5f5;fontColor=#333333;strokeColor=#666666;" parent="1" vertex="1">
                    <mxGeometry x="960" y="660" width="140" height="60" as="geometry"/>
                </mxCell>
                <mxCell id="138" value="sum = 0" style="html=1;strokeColor=#666666;fillColor=#f5f5f5;align=left;verticalAlign=middle;spacingLeft=4;spacingRight=4;rotatable=0;points=[[0,0.5],[1,0.5]];resizeWidth=1;fontColor=#333333;" parent="137" vertex="1">
                    <mxGeometry y="30" width="140" height="30" as="geometry"/>
                </mxCell>
                <mxCell id="149" style="edgeStyle=none;html=1;entryX=0.5;entryY=0;entryDx=0;entryDy=0;fillColor=#a20025;strokeColor=#6F0000;" parent="1" source="87" target="137" edge="1">
                    <mxGeometry relative="1" as="geometry">
                        <Array as="points">
                            <mxPoint x="690" y="680"/>
                            <mxPoint x="820" y="610"/>
                        </Array>
                    </mxGeometry>
                </mxCell>
                <mxCell id="207" value="Contains" style="edgeLabel;html=1;align=center;verticalAlign=middle;resizable=0;points=[];" parent="149" vertex="1" connectable="0">
                    <mxGeometry x="-0.3587" y="-2" relative="1" as="geometry">
                        <mxPoint as="offset"/>
                    </mxGeometry>
                </mxCell>
                <mxCell id="191" style="edgeStyle=none;html=1;fillColor=#008a00;strokeColor=#005700;" parent="1" source="151" target="90" edge="1">
                    <mxGeometry relative="1" as="geometry">
                        <mxPoint x="320" y="900" as="targetPoint"/>
                        <Array as="points">
                            <mxPoint x="320" y="900"/>
                        </Array>
                    </mxGeometry>
                </mxCell>
                <mxCell id="192" value="Uses" style="edgeLabel;html=1;align=center;verticalAlign=middle;resizable=0;points=[];" parent="191" vertex="1" connectable="0">
                    <mxGeometry x="0.5011" y="1" relative="1" as="geometry">
                        <mxPoint as="offset"/>
                    </mxGeometry>
                </mxCell>
                <mxCell id="151" value="Payment" style="swimlane;fontStyle=4;align=center;verticalAlign=top;childLayout=stackLayout;horizontal=1;startSize=30;horizontalStack=0;resizeParent=1;resizeParentMax=0;resizeLast=0;collapsible=0;marginBottom=0;html=1;fillColor=#f5f5f5;fontColor=#333333;strokeColor=#666666;" parent="1" vertex="1">
                    <mxGeometry x="190" y="765" width="140" height="60" as="geometry"/>
                </mxCell>
                <mxCell id="152" value="sum = 550" style="html=1;strokeColor=#666666;fillColor=#f5f5f5;align=left;verticalAlign=middle;spacingLeft=4;spacingRight=4;rotatable=0;points=[[0,0.5],[1,0.5]];resizeWidth=1;fontColor=#333333;" parent="151" vertex="1">
                    <mxGeometry y="30" width="140" height="30" as="geometry"/>
                </mxCell>
                <mxCell id="153" value="Payment" style="swimlane;fontStyle=4;align=center;verticalAlign=top;childLayout=stackLayout;horizontal=1;startSize=30;horizontalStack=0;resizeParent=1;resizeParentMax=0;resizeLast=0;collapsible=0;marginBottom=0;html=1;fillColor=#f5f5f5;fontColor=#333333;strokeColor=#666666;" parent="1" vertex="1">
                    <mxGeometry x="580" y="770" width="140" height="60" as="geometry"/>
                </mxCell>
                <mxCell id="154" value="sum = 600" style="html=1;strokeColor=#666666;fillColor=#f5f5f5;align=left;verticalAlign=middle;spacingLeft=4;spacingRight=4;rotatable=0;points=[[0,0.5],[1,0.5]];resizeWidth=1;fontColor=#333333;" parent="153" vertex="1">
                    <mxGeometry y="30" width="140" height="30" as="geometry"/>
                </mxCell>
                <mxCell id="155" value="Contains" style="edgeStyle=none;html=1;entryX=0.382;entryY=-0.028;entryDx=0;entryDy=0;entryPerimeter=0;fillColor=#a20025;strokeColor=#6F0000;" parent="1" source="59" target="153" edge="1">
                    <mxGeometry relative="1" as="geometry"/>
                </mxCell>
                <mxCell id="156" style="edgeStyle=none;html=1;fillColor=#a20025;strokeColor=#6F0000;" parent="1" source="71" target="151" edge="1">
                    <mxGeometry relative="1" as="geometry">
                        <Array as="points">
                            <mxPoint x="210" y="720"/>
                        </Array>
                    </mxGeometry>
                </mxCell>
                <mxCell id="190" value="Contains" style="edgeLabel;html=1;align=center;verticalAlign=middle;resizable=0;points=[];" parent="156" vertex="1" connectable="0">
                    <mxGeometry x="0.0987" y="2" relative="1" as="geometry">
                        <mxPoint as="offset"/>
                    </mxGeometry>
                </mxCell>
                <mxCell id="157" style="edgeStyle=none;html=1;fillColor=#a20025;strokeColor=#6F0000;" parent="1" source="36" edge="1">
                    <mxGeometry relative="1" as="geometry">
                        <mxPoint x="270" y="59.999999999999886" as="targetPoint"/>
                        <mxPoint x="170" y="262.0200000000001" as="sourcePoint"/>
                    </mxGeometry>
                </mxCell>
                <mxCell id="181" value="Contains" style="edgeLabel;html=1;align=center;verticalAlign=middle;resizable=0;points=[];" parent="157" vertex="1" connectable="0">
                    <mxGeometry x="-0.1583" y="-1" relative="1" as="geometry">
                        <mxPoint x="1" as="offset"/>
                    </mxGeometry>
                </mxCell>
                <mxCell id="158" value="" style="swimlane;fontStyle=1;align=center;verticalAlign=top;horizontal=1;startSize=0;collapsible=0;marginBottom=0;html=1;strokeColor=#666666;fillColor=#f5f5f5;fontColor=#333333;" parent="1" vertex="1">
                    <mxGeometry x="240" width="230" height="162" as="geometry"/>
                </mxCell>
                <mxCell id="159" value="&amp;nbsp;number = 1&lt;br&gt;condition=0&lt;br&gt;int idOfPet = 1&lt;br&gt;&amp;nbsp;begginingDay = 1&lt;br&gt;begginingMonth = 1&lt;br&gt;&amp;nbsp;endDay = 2&lt;br&gt;&amp;nbsp;endMonth = 1" style="html=1;align=center;verticalAlign=middle;rotatable=0;fillColor=#f5f5f5;fontColor=#333333;strokeColor=#666666;" parent="158" vertex="1">
                    <mxGeometry width="130" height="140" relative="1" as="geometry">
                        <mxPoint x="30" y="10" as="offset"/>
                    </mxGeometry>
                </mxCell>
                <mxCell id="160" value="room" style="shape=partialRectangle;html=1;top=1;align=left;dashed=1;fillColor=#f5f5f5;fontColor=#333333;strokeColor=#666666;" parent="158" vertex="1">
                    <mxGeometry x="30" y="10" width="130" height="20" as="geometry"/>
                </mxCell>
                <mxCell id="161" value="" style="swimlane;fontStyle=1;align=center;verticalAlign=top;horizontal=1;startSize=0;collapsible=0;marginBottom=0;html=1;strokeColor=#666666;fillColor=#f5f5f5;fontColor=#333333;" parent="1" vertex="1">
                    <mxGeometry x="400" width="230" height="162" as="geometry"/>
                </mxCell>
                <mxCell id="162" value="&amp;nbsp;number = 2&lt;br&gt;condition=0&lt;br&gt;int idOfPet = 2&lt;br&gt;&amp;nbsp;begginingDay = 1&lt;br&gt;begginingMonth = 1&lt;br&gt;&amp;nbsp;endDay = 3&lt;br&gt;&amp;nbsp;endMonth = 1" style="html=1;align=center;verticalAlign=middle;rotatable=0;fillColor=#f5f5f5;fontColor=#333333;strokeColor=#666666;" parent="161" vertex="1">
                    <mxGeometry width="130" height="140" relative="1" as="geometry">
                        <mxPoint x="30" y="10" as="offset"/>
                    </mxGeometry>
                </mxCell>
                <mxCell id="163" value="room" style="shape=partialRectangle;html=1;top=1;align=left;dashed=1;fillColor=#f5f5f5;fontColor=#333333;strokeColor=#666666;" parent="161" vertex="1">
                    <mxGeometry x="30" y="10" width="130" height="20" as="geometry"/>
                </mxCell>
                <mxCell id="164" value="" style="swimlane;fontStyle=1;align=center;verticalAlign=top;horizontal=1;startSize=0;collapsible=0;marginBottom=0;html=1;strokeColor=#666666;fillColor=#f5f5f5;fontColor=#333333;" parent="1" vertex="1">
                    <mxGeometry x="570" width="230" height="162" as="geometry"/>
                </mxCell>
                <mxCell id="165" value="&amp;nbsp;number = 3&lt;br&gt;condition= 0&amp;nbsp;&lt;br&gt;int idOfPet = -1&lt;br&gt;&amp;nbsp;begginingDay = 0&lt;br&gt;begginingMonth = 0&lt;br&gt;&amp;nbsp;endDay = 0&lt;br&gt;&amp;nbsp;endMonth = 0" style="html=1;align=center;verticalAlign=middle;rotatable=0;fillColor=#f5f5f5;fontColor=#333333;strokeColor=#666666;" parent="164" vertex="1">
                    <mxGeometry width="130" height="140" relative="1" as="geometry">
                        <mxPoint x="30" y="10" as="offset"/>
                    </mxGeometry>
                </mxCell>
                <mxCell id="166" value="room" style="shape=partialRectangle;html=1;top=1;align=left;dashed=1;fillColor=#f5f5f5;fontColor=#333333;strokeColor=#666666;" parent="164" vertex="1">
                    <mxGeometry x="30" y="10" width="130" height="20" as="geometry"/>
                </mxCell>
                <mxCell id="167" value="" style="swimlane;fontStyle=1;align=center;verticalAlign=top;horizontal=1;startSize=0;collapsible=0;marginBottom=0;html=1;strokeColor=#666666;fillColor=#f5f5f5;fontColor=#333333;" parent="1" vertex="1">
                    <mxGeometry x="740" width="230" height="162" as="geometry"/>
                </mxCell>
                <mxCell id="168" value="&amp;nbsp;number = 4&lt;br&gt;condition=0&lt;br&gt;int idOfPet = -1&lt;br&gt;&amp;nbsp;begginingDay = 0&lt;br&gt;begginingMonth = 0&lt;br&gt;&amp;nbsp;endDay = 0&lt;br&gt;&amp;nbsp;endMonth = 0" style="html=1;align=center;verticalAlign=middle;rotatable=0;fillColor=#f5f5f5;fontColor=#333333;strokeColor=#666666;" parent="167" vertex="1">
                    <mxGeometry width="130" height="140" relative="1" as="geometry">
                        <mxPoint x="30" y="10" as="offset"/>
                    </mxGeometry>
                </mxCell>
                <mxCell id="169" value="room" style="shape=partialRectangle;html=1;top=1;align=left;dashed=1;fillColor=#f5f5f5;fontColor=#333333;strokeColor=#666666;" parent="167" vertex="1">
                    <mxGeometry x="30" y="10" width="130" height="20" as="geometry"/>
                </mxCell>
                <mxCell id="170" value="" style="swimlane;fontStyle=1;align=center;verticalAlign=top;horizontal=1;startSize=0;collapsible=0;marginBottom=0;html=1;strokeColor=#666666;fillColor=#f5f5f5;fontColor=#333333;" parent="1" vertex="1">
                    <mxGeometry x="890" width="230" height="162" as="geometry"/>
                </mxCell>
                <mxCell id="171" value="&amp;nbsp;number = 5&lt;br&gt;condition=0&lt;br&gt;int idOfPet = -1&lt;br&gt;&amp;nbsp;begginingDay = 0&lt;br&gt;begginingMonth = 0&lt;br&gt;&amp;nbsp;endDay = 0&lt;br&gt;&amp;nbsp;endMonth = 0" style="html=1;align=center;verticalAlign=middle;rotatable=0;fillColor=#f5f5f5;fontColor=#333333;strokeColor=#666666;" parent="170" vertex="1">
                    <mxGeometry width="130" height="140" relative="1" as="geometry">
                        <mxPoint x="30" y="10" as="offset"/>
                    </mxGeometry>
                </mxCell>
                <mxCell id="172" value="room" style="shape=partialRectangle;html=1;top=1;align=left;dashed=1;fillColor=#f5f5f5;fontColor=#333333;strokeColor=#666666;" parent="170" vertex="1">
                    <mxGeometry x="30" y="10" width="130" height="20" as="geometry"/>
                </mxCell>
                <mxCell id="174" style="edgeStyle=none;html=1;entryX=0;entryY=1;entryDx=0;entryDy=0;fillColor=#a20025;strokeColor=#6F0000;exitX=1;exitY=0.5;exitDx=0;exitDy=0;" parent="1" target="162" edge="1" source="36">
                    <mxGeometry relative="1" as="geometry">
                        <mxPoint x="250" y="180" as="sourcePoint"/>
                        <Array as="points">
                            <mxPoint x="240" y="180"/>
                        </Array>
                    </mxGeometry>
                </mxCell>
                <mxCell id="182" value="Contains" style="edgeLabel;html=1;align=center;verticalAlign=middle;resizable=0;points=[];" parent="174" vertex="1" connectable="0">
                    <mxGeometry x="-0.0692" y="1" relative="1" as="geometry">
                        <mxPoint x="75" y="-13" as="offset"/>
                    </mxGeometry>
                </mxCell>
                <mxCell id="175" style="edgeStyle=none;html=1;entryX=0;entryY=1;entryDx=0;entryDy=0;fillColor=#a20025;strokeColor=#6F0000;startArrow=none;exitX=1;exitY=0.5;exitDx=0;exitDy=0;" parent="1" target="165" edge="1" source="36">
                    <mxGeometry relative="1" as="geometry">
                        <mxPoint x="160" y="164.9367088607595" as="sourcePoint"/>
                        <Array as="points">
                            <mxPoint x="240" y="180"/>
                            <mxPoint x="490" y="190"/>
                        </Array>
                    </mxGeometry>
                </mxCell>
                <mxCell id="176" style="edgeStyle=none;html=1;entryX=0;entryY=1;entryDx=0;entryDy=0;exitX=1;exitY=0.5;exitDx=0;exitDy=0;fillColor=#a20025;strokeColor=#6F0000;" parent="1" source="36" target="168" edge="1">
                    <mxGeometry relative="1" as="geometry">
                        <Array as="points">
                            <mxPoint x="240" y="180"/>
                            <mxPoint x="570" y="190"/>
                        </Array>
                        <mxPoint x="169.35000000000002" y="262.15999999999997" as="sourcePoint"/>
                    </mxGeometry>
                </mxCell>
                <mxCell id="177" style="edgeStyle=none;html=1;entryX=0.385;entryY=1;entryDx=0;entryDy=0;entryPerimeter=0;exitX=1;exitY=0.5;exitDx=0;exitDy=0;fillColor=#a20025;strokeColor=#6F0000;" parent="1" source="36" target="171" edge="1">
                    <mxGeometry relative="1" as="geometry">
                        <Array as="points">
                            <mxPoint x="240" y="180"/>
                            <mxPoint x="530" y="190"/>
                            <mxPoint x="560" y="190"/>
                        </Array>
                        <mxPoint x="169.87" y="261.6" as="sourcePoint"/>
                    </mxGeometry>
                </mxCell>
                <mxCell id="198" style="edgeStyle=none;html=1;fillColor=#008a00;strokeColor=#005700;entryX=1;entryY=0.432;entryDx=0;entryDy=0;entryPerimeter=0;" parent="1" target="110" edge="1">
                    <mxGeometry relative="1" as="geometry">
                        <mxPoint x="550" y="867.3404255319149" as="targetPoint"/>
                        <mxPoint x="657.1428571428571" y="830" as="sourcePoint"/>
                        <Array as="points">
                            <mxPoint x="700" y="905"/>
                        </Array>
                    </mxGeometry>
                </mxCell>
                <mxCell id="199" value="Uses" style="edgeLabel;html=1;align=center;verticalAlign=middle;resizable=0;points=[];" parent="198" vertex="1" connectable="0">
                    <mxGeometry x="0.5011" y="1" relative="1" as="geometry">
                        <mxPoint as="offset"/>
                    </mxGeometry>
                </mxCell>
                <mxCell id="209" style="edgeStyle=none;html=1;entryX=1.01;entryY=0.547;entryDx=0;entryDy=0;entryPerimeter=0;fillColor=#008a00;strokeColor=#005700;" parent="1" source="138" target="126" edge="1">
                    <mxGeometry relative="1" as="geometry"/>
                </mxCell>
                <mxCell id="210" value="Uses" style="edgeLabel;html=1;align=center;verticalAlign=middle;resizable=0;points=[];" parent="209" vertex="1" connectable="0">
                    <mxGeometry x="-0.1592" relative="1" as="geometry">
                        <mxPoint as="offset"/>
                    </mxGeometry>
                </mxCell>
                <mxCell id="220" value="int number&lt;br&gt;int condition&lt;br&gt;int idOfPet&lt;br&gt;int begginingDay&lt;br&gt;int begginingMonth&lt;br&gt;int endDay&lt;br&gt;int endMonth" style="html=1;align=center;verticalAlign=middle;rotatable=0;fillColor=#f5f5f5;fontColor=#333333;strokeColor=#666666;" vertex="1" parent="1">
                    <mxGeometry x="15" y="180" width="130" height="140" as="geometry"/>
                </mxCell>
                <mxCell id="233" value="Struct Room" style="html=1;strokeColor=#666666;fillColor=#f5f5f5;align=left;verticalAlign=middle;spacingLeft=4;spacingRight=4;rotatable=0;points=[[0,0.5],[1,0.5]];resizeWidth=1;fontColor=#333333;" vertex="1" parent="1">
                    <mxGeometry x="15" y="152" width="130" height="30" as="geometry"/>
                </mxCell>
                <mxCell id="73" style="edgeStyle=none;html=1;fillColor=#a20025;strokeColor=#6F0000;exitX=0.752;exitY=1.023;exitDx=0;exitDy=0;exitPerimeter=0;" parent="1" source="36" target="55" edge="1">
                    <mxGeometry relative="1" as="geometry">
                        <Array as="points">
                            <mxPoint x="230" y="390"/>
                            <mxPoint x="220" y="540"/>
                        </Array>
                        <mxPoint x="210" y="310" as="sourcePoint"/>
                    </mxGeometry>
                </mxCell>
                <mxCell id="187" value="Contains" style="edgeLabel;html=1;align=center;verticalAlign=middle;resizable=0;points=[];" parent="73" vertex="1" connectable="0">
                    <mxGeometry x="-0.4842" y="2" relative="1" as="geometry">
                        <mxPoint as="offset"/>
                    </mxGeometry>
                </mxCell>
                <mxCell id="237" value="Contains" style="edgeLabel;html=1;align=center;verticalAlign=middle;resizable=0;points=[];" vertex="1" connectable="0" parent="1">
                    <mxGeometry x="400.00006679964764" y="180.00200267198588" as="geometry">
                        <mxPoint x="-4" as="offset"/>
                    </mxGeometry>
                </mxCell>
                <mxCell id="240" value="Contains" style="edgeLabel;html=1;align=center;verticalAlign=middle;resizable=0;points=[];" vertex="1" connectable="0" parent="1">
                    <mxGeometry x="69.99688336151982" y="130.002045032948" as="geometry">
                        <mxPoint x="-1" y="-5" as="offset"/>
                    </mxGeometry>
                </mxCell>
            </root>
        </mxGraphModel>
    </diagram>
</mxfile>